# Blender v2.63 (sub 0) OBJ File: 'collisionmask.blend'
# www.blender.org
o BrkshipCollision
v 2.722387 0.159372 1.000000
v 2.722387 0.159372 -1.000000
v -0.118263 1.660970 1.000000
v -0.118263 1.660970 -1.000000
v -1.439167 1.708832 1.000000
v -1.439167 1.708832 -1.000000
v -2.060377 -1.584986 0.999999
v -2.060377 -1.584986 -1.000001
v 6.523273 -1.258129 1.000000
v 6.523273 -1.258129 -1.000000
vn 0.349430 0.936962 0.000000
vn 0.467334 0.884081 0.000000
vn 0.036211 0.999344 0.000000
vn -0.982676 0.185332 0.000000
s off
f 2//1 1//1 9//1 10//1
f 3//2 1//2 2//2 4//2
f 5//3 3//3 4//3 6//3
f 7//4 5//4 6//4 8//4
