# Blender v2.63 (sub 0) OBJ File: 'collisionmask.blend'
# www.blender.org
o Mesh_Plane.002
v 4.705797 -0.482176 1.000000
v -0.346954 2.461377 1.000000
v -0.346954 2.461377 -1.000000
v 4.705797 -0.482176 -1.000000
v -0.726323 3.239072 1.000000
v -0.726323 3.239073 -1.000000
v -2.018277 3.518585 1.000000
v -2.018277 3.518586 -1.000000
v -4.955985 3.583654 1.000000
v -4.955985 3.583654 -1.000000
v 1.616498 1.448279 1.000000
v 1.616498 1.448279 -1.000000
v 0.645197 2.100771 1.000000
v 2.921384 0.232863 -1.000000
v 2.921384 0.232863 1.000000
v 0.645197 2.100771 -1.000000
vn 0.341596 0.939847 0.000000
vn 0.898766 0.438429 0.000000
vn 0.211457 0.977387 0.000000
vn 0.022144 0.999755 0.000000
vn 0.681575 0.731748 0.000000
vn 0.557630 0.830089 0.000000
vn 0.371962 0.928248 0.000000
s off
f 13//1 16//1 3//1 2//1
f 3//2 6//2 5//2 2//2
f 7//3 5//3 6//3 8//3
f 9//4 7//4 8//4 10//4
f 15//5 14//5 12//5 11//5
f 11//6 12//6 16//6 13//6
f 1//7 4//7 14//7 15//7
